<svg xmlns="http://www.w3.org/2000/svg" xmlns:xlink="http://www.w3.org/1999/xlink" contentStyleType="text/css" data-diagram-type="ACTIVITY" height="1458px" preserveAspectRatio="none" style="width:799px;height:1458px;background:#FFFFFF;" version="1.1" viewBox="0 0 799 1458" width="799px" zoomAndPan="magnify"><?plantuml 1.2026.4beta2?><defs/><g><g class="title" data-source-line="6"><text fill="#000000" font-family="sans-serif" font-size="14" font-weight="700" lengthAdjust="spacing" textLength="336.7998" x="230.2021" y="32.9951">Privacy Policy Analyzer - System Workflow</text></g><ellipse cx="330.0508" cy="62.2969" fill="#222222" rx="10" ry="10" style="stroke:#222222;stroke-width:1;"/><rect fill="#FEFEFE" height="33.9688" rx="12.5" ry="12.5" style="stroke:#333333;stroke-width:0.5;" width="169.4434" x="245.3291" y="92.2969"/><text fill="#000000" font-family="sans-serif" font-size="12" lengthAdjust="spacing" textLength="149.4434" x="255.3291" y="113.4355">Receive User Target URL</text><polygon fill="#FEFEFE" points="271.667,146.2656,388.4346,146.2656,400.4346,158.2656,388.4346,170.2656,271.667,170.2656,259.667,158.2656,271.667,146.2656" style="stroke:#333333;stroke-width:0.5;"/><text fill="#000000" font-family="sans-serif" font-size="11" lengthAdjust="spacing" textLength="116.7676" x="271.667" y="162.0737">no-discover Flag set?</text><text fill="#000000" font-family="sans-serif" font-size="11" lengthAdjust="spacing" textLength="19.2178" x="240.4492" y="155.6714">Yes</text><text fill="#000000" font-family="sans-serif" font-size="11" lengthAdjust="spacing" textLength="14.9585" x="400.4346" y="155.6714">No</text><rect fill="#FEFEFE" height="33.9688" rx="12.5" ry="12.5" style="stroke:#333333;stroke-width:0.5;" width="141.8867" x="119.6914" y="180.2656"/><text fill="#000000" font-family="sans-serif" font-size="12" lengthAdjust="spacing" textLength="121.8867" x="129.6914" y="201.4043">Use target URL as-is</text><rect fill="none" height="416.1094" style="stroke:#000000;stroke-width:1.5;" width="410.875" x="281.5781" y="180.2656"/><path d="M457.8486,180.2656 L457.8486,189.5625 L447.8486,199.5625 L281.5781,199.5625" fill="none" style="stroke:#000000;stroke-width:1.5;"/><text fill="#000000" font-family="sans-serif" font-size="14" lengthAdjust="spacing" textLength="166.2705" x="284.5781" y="194.2607">Auto-Discovery Pipeline</text><rect fill="#FEFEFE" height="33.9688" rx="12.5" ry="12.5" style="stroke:#333333;stroke-width:0.5;" width="174.9336" x="382" y="216.5625"/><text fill="#000000" font-family="sans-serif" font-size="12" lengthAdjust="spacing" textLength="154.9336" x="392" y="237.7012">1. Heuristic Sitemap Scan</text><polygon fill="#FEFEFE" points="420.3589,270.5313,518.5747,270.5313,530.5747,282.5313,518.5747,294.5313,420.3589,294.5313,408.3589,282.5313,420.3589,270.5313" style="stroke:#333333;stroke-width:0.5;"/><text fill="#000000" font-family="sans-serif" font-size="11" lengthAdjust="spacing" textLength="98.2158" x="420.3589" y="286.3394">Policy URL found?</text><text fill="#000000" font-family="sans-serif" font-size="11" lengthAdjust="spacing" textLength="19.2178" x="389.1411" y="279.937">Yes</text><text fill="#000000" font-family="sans-serif" font-size="11" lengthAdjust="spacing" textLength="14.9585" x="530.5747" y="279.937">No</text><rect fill="#FEFEFE" height="33.9688" rx="12.5" ry="12.5" style="stroke:#333333;stroke-width:0.5;" width="140.3398" x="301.5781" y="304.5313"/><text fill="#000000" font-family="sans-serif" font-size="12" lengthAdjust="spacing" textLength="120.3398" x="311.5781" y="325.6699">Return sitemap URL</text><rect fill="#FEFEFE" height="33.9688" rx="12.5" ry="12.5" style="stroke:#333333;stroke-width:0.5;" width="172.3379" x="481.0166" y="304.5313"/><text fill="#000000" font-family="sans-serif" font-size="12" lengthAdjust="spacing" textLength="152.3379" x="491.0166" y="325.6699">2. Page Anchor Link Scan</text><rect fill="#FEFEFE" height="33.9688" rx="12.5" ry="12.5" style="stroke:#333333;stroke-width:0.5;" width="209.4746" x="462.4482" y="358.5"/><text fill="#000000" font-family="sans-serif" font-size="12" lengthAdjust="spacing" textLength="189.4746" x="472.4482" y="379.6387">Filter links by privacy keywords</text><rect fill="#FEFEFE" height="33.9688" rx="12.5" ry="12.5" style="stroke:#333333;stroke-width:0.5;" width="190.8535" x="471.7588" y="412.4688"/><text fill="#000000" font-family="sans-serif" font-size="12" lengthAdjust="spacing" textLength="170.8535" x="481.7588" y="433.6074">Score links (priority ranking)</text><rect fill="#FEFEFE" height="33.9688" rx="12.5" ry="12.5" style="stroke:#333333;stroke-width:0.5;" width="203.3516" x="465.5098" y="466.4375"/><text fill="#000000" font-family="sans-serif" font-size="12" lengthAdjust="spacing" textLength="183.3516" x="475.5098" y="487.5762">Verify candidate (HTTP status)</text><rect fill="#FEFEFE" height="33.9688" rx="12.5" ry="12.5" style="stroke:#333333;stroke-width:0.5;" width="210.5352" x="461.918" y="520.4063"/><text fill="#000000" font-family="sans-serif" font-size="12" lengthAdjust="spacing" textLength="190.5352" x="471.918" y="541.5449">Pick highest scored verified link</text><polygon fill="#FEFEFE" points="469.4668,560.375,481.4668,572.375,469.4668,584.375,457.4668,572.375,469.4668,560.375" style="stroke:#333333;stroke-width:0.5;"/><polygon fill="#FEFEFE" points="330.0508,602.375,342.0508,614.375,330.0508,626.375,318.0508,614.375,330.0508,602.375" style="stroke:#333333;stroke-width:0.5;"/><rect fill="none" height="254.2031" style="stroke:#000000;stroke-width:1.5;" width="604.2148" x="16" y="636.375"/><path d="M185.291,636.375 L185.291,645.6719 L175.291,655.6719 L16,655.6719" fill="none" style="stroke:#000000;stroke-width:1.5;"/><text fill="#000000" font-family="sans-serif" font-size="14" lengthAdjust="spacing" textLength="159.291" x="19" y="650.3701">Text Extraction Engine</text><rect fill="#FEFEFE" height="33.9688" rx="12.5" ry="12.5" style="stroke:#333333;stroke-width:0.5;" width="193.0742" x="233.5137" y="672.6719"/><text fill="#000000" font-family="sans-serif" font-size="12" lengthAdjust="spacing" textLength="173.0742" x="243.5137" y="693.8105">Fetch page content via HTTP</text><polygon fill="#FEFEFE" points="246.498,726.6406,413.6035,726.6406,425.6035,738.6406,413.6035,750.6406,246.498,750.6406,234.498,738.6406,246.498,726.6406" style="stroke:#333333;stroke-width:0.5;"/><text fill="#000000" font-family="sans-serif" font-size="11" lengthAdjust="spacing" textLength="167.1055" x="246.498" y="742.4487">HTTP successful &amp; text found?</text><text fill="#000000" font-family="sans-serif" font-size="11" lengthAdjust="spacing" textLength="19.2178" x="215.2803" y="736.0464">Yes</text><text fill="#000000" font-family="sans-serif" font-size="11" lengthAdjust="spacing" textLength="14.9585" x="425.6035" y="736.0464">No</text><rect fill="#FEFEFE" height="33.9688" rx="12.5" ry="12.5" style="stroke:#333333;stroke-width:0.5;" width="307.9941" x="28" y="760.6406"/><text fill="#000000" font-family="sans-serif" font-size="12" lengthAdjust="spacing" textLength="287.9941" x="38" y="781.7793">Extract main text via Trafilatura / BeautifulSoup</text><rect fill="#FEFEFE" height="33.9688" rx="12.5" ry="12.5" style="stroke:#333333;stroke-width:0.5;" width="244.2207" x="355.9941" y="760.6406"/><text fill="#000000" font-family="sans-serif" font-size="12" lengthAdjust="spacing" textLength="224.2207" x="365.9941" y="781.7793">Fallback to Headless Selenium Driver</text><rect fill="#FEFEFE" height="33.9688" rx="12.5" ry="12.5" style="stroke:#333333;stroke-width:0.5;" width="239.9082" x="358.1504" y="814.6094"/><text fill="#000000" font-family="sans-serif" font-size="12" lengthAdjust="spacing" textLength="219.9082" x="368.1504" y="835.748">Render page and extract visible text</text><polygon fill="#FEFEFE" points="330.0508,854.5781,342.0508,866.5781,330.0508,878.5781,318.0508,866.5781,330.0508,854.5781" style="stroke:#333333;stroke-width:0.5;"/><rect fill="none" height="242.2031" style="stroke:#000000;stroke-width:1.5;" width="680.9307" x="98.2734" y="900.5781"/><path d="M236.6387,900.5781 L236.6387,909.875 L226.6387,919.875 L98.2734,919.875" fill="none" style="stroke:#000000;stroke-width:1.5;"/><text fill="#000000" font-family="sans-serif" font-size="14" lengthAdjust="spacing" textLength="128.3652" x="101.2734" y="914.5732">Analysis &amp; AI Core</text><rect fill="#FEFEFE" height="33.9688" rx="12.5" ry="12.5" style="stroke:#333333;stroke-width:0.5;" width="254.9141" x="202.5938" y="936.875"/><text fill="#000000" font-family="sans-serif" font-size="12" lengthAdjust="spacing" textLength="234.9141" x="212.5938" y="958.0137">Split text into paragraph-aware chunks</text><path d="M571.8281,1006.1289 L571.8281,1061.5273 L769.2041,1061.5273 L769.2041,1016.1289 L759.2041,1006.1289 L571.8281,1006.1289" fill="#FEFFDD" style="stroke:#181818;stroke-width:0.5;"/><path d="M759.2041,1006.1289 L759.2041,1016.1289 L769.2041,1016.1289 L759.2041,1006.1289" fill="#FEFFDD" style="stroke:#181818;stroke-width:0.5;"/><text fill="#000000" font-family="sans-serif" font-size="13" lengthAdjust="spacing" textLength="116.0605" x="577.8281" y="1023.1958">Parallel execution</text><text fill="#000000" font-family="sans-serif" font-size="13" lengthAdjust="spacing" textLength="162.5" x="577.8281" y="1038.3286">with ThreadPoolExecutor</text><text fill="#000000" font-family="sans-serif" font-size="13" lengthAdjust="spacing" textLength="176.376" x="577.8281" y="1053.4614">and Tenacity robust retries</text><rect fill="#555555" height="6" rx="2.5" ry="2.5" style="stroke:#555555;stroke-width:1;" width="443.5547" x="108.2734" y="990.8438"/><rect fill="#FEFEFE" height="33.9688" rx="12.5" ry="12.5" style="stroke:#333333;stroke-width:0.5;" width="119.4043" x="122.2734" y="1016.8438"/><text fill="#000000" font-family="sans-serif" font-size="12" lengthAdjust="spacing" textLength="99.4043" x="132.2734" y="1037.9824">Process Chunk 1</text><rect fill="#FEFEFE" height="33.9688" rx="12.5" ry="12.5" style="stroke:#333333;stroke-width:0.5;" width="119.4043" x="269.6777" y="1016.8438"/><text fill="#000000" font-family="sans-serif" font-size="12" lengthAdjust="spacing" textLength="99.4043" x="279.6777" y="1037.9824">Process Chunk 2</text><rect fill="#FEFEFE" height="33.9688" rx="12.5" ry="12.5" style="stroke:#333333;stroke-width:0.5;" width="120.7461" x="417.082" y="1016.8438"/><text fill="#000000" font-family="sans-serif" font-size="12" lengthAdjust="spacing" textLength="100.7461" x="427.082" y="1037.9824">Process Chunk N</text><rect fill="#555555" height="6" rx="2.5" ry="2.5" style="stroke:#555555;stroke-width:1;" width="443.5547" x="108.2734" y="1070.8125"/><rect fill="#FEFEFE" height="33.9688" rx="12.5" ry="12.5" style="stroke:#333333;stroke-width:0.5;" width="195.8633" x="232.1191" y="1096.8125"/><text fill="#000000" font-family="sans-serif" font-size="12" lengthAdjust="spacing" textLength="175.8633" x="242.1191" y="1117.9512">Perform structured LLM audit</text><rect fill="none" height="190.2031" style="stroke:#000000;stroke-width:1.5;" width="272.1953" x="193.9531" y="1152.7813"/><path d="M282.9492,1152.7813 L282.9492,1162.0781 L272.9492,1172.0781 L193.9531,1172.0781" fill="none" style="stroke:#000000;stroke-width:1.5;"/><text fill="#000000" font-family="sans-serif" font-size="14" lengthAdjust="spacing" textLength="78.9961" x="196.9531" y="1166.7764">Aggregator</text><rect fill="#FEFEFE" height="33.9688" rx="12.5" ry="12.5" style="stroke:#333333;stroke-width:0.5;" width="200.6973" x="229.7021" y="1189.0781"/><text fill="#000000" font-family="sans-serif" font-size="12" lengthAdjust="spacing" textLength="180.6973" x="239.7021" y="1210.2168">Collect chunk analysis objects</text><rect fill="#FEFEFE" height="33.9688" rx="12.5" ry="12.5" style="stroke:#333333;stroke-width:0.5;" width="182.2402" x="238.9307" y="1243.0469"/><text fill="#000000" font-family="sans-serif" font-size="12" lengthAdjust="spacing" textLength="162.2402" x="248.9307" y="1264.1855">Aggregate category scores</text><rect fill="#FEFEFE" height="33.9688" rx="12.5" ry="12.5" style="stroke:#333333;stroke-width:0.5;" width="252.1953" x="203.9531" y="1297.0156"/><text fill="#000000" font-family="sans-serif" font-size="12" lengthAdjust="spacing" textLength="232.1953" x="213.9531" y="1318.1543">Extract top strengths, risks &amp; red flags</text><rect fill="#FEFEFE" height="33.9688" rx="12.5" ry="12.5" style="stroke:#333333;stroke-width:0.5;" width="293.7617" x="183.1699" y="1362.9844"/><text fill="#000000" font-family="sans-serif" font-size="12" lengthAdjust="spacing" textLength="273.7617" x="193.1699" y="1384.123">Print output report (JSON or human-readable)</text><ellipse cx="330.0508" cy="1427.9531" fill="none" rx="11" ry="11" style="stroke:#222222;stroke-width:1;"/><ellipse cx="330.0508" cy="1427.9531" fill="#222222" rx="6" ry="6" style="stroke:#222222;stroke-width:1;"/><line style="stroke:#555555;stroke-width:1;" x1="330.0508" x2="330.0508" y1="72.2969" y2="92.2969"/><polygon fill="#555555" points="326.0508,82.2969,330.0508,92.2969,334.0508,82.2969,330.0508,86.2969" style="stroke:#555555;stroke-width:1;"/><line style="stroke:#555555;stroke-width:1;" x1="567.1855" x2="567.1855" y1="338.5" y2="358.5"/><polygon fill="#555555" points="563.1855,348.5,567.1855,358.5,571.1855,348.5,567.1855,352.5" style="stroke:#555555;stroke-width:1;"/><line style="stroke:#555555;stroke-width:1;" x1="567.1855" x2="567.1855" y1="392.4688" y2="412.4688"/><polygon fill="#555555" points="563.1855,402.4688,567.1855,412.4688,571.1855,402.4688,567.1855,406.4688" style="stroke:#555555;stroke-width:1;"/><line style="stroke:#555555;stroke-width:1;" x1="567.1855" x2="567.1855" y1="446.4375" y2="466.4375"/><polygon fill="#555555" points="563.1855,456.4375,567.1855,466.4375,571.1855,456.4375,567.1855,460.4375" style="stroke:#555555;stroke-width:1;"/><line style="stroke:#555555;stroke-width:1;" x1="567.1855" x2="567.1855" y1="500.4063" y2="520.4063"/><polygon fill="#555555" points="563.1855,510.4063,567.1855,520.4063,571.1855,510.4063,567.1855,514.4063" style="stroke:#555555;stroke-width:1;"/><line style="stroke:#555555;stroke-width:1;" x1="408.3589" x2="371.748" y1="282.5313" y2="282.5313"/><line style="stroke:#555555;stroke-width:1;" x1="371.748" x2="371.748" y1="282.5313" y2="304.5313"/><polygon fill="#555555" points="367.748,294.5313,371.748,304.5313,375.748,294.5313,371.748,298.5313" style="stroke:#555555;stroke-width:1;"/><line style="stroke:#555555;stroke-width:1;" x1="530.5747" x2="567.1855" y1="282.5313" y2="282.5313"/><line style="stroke:#555555;stroke-width:1;" x1="567.1855" x2="567.1855" y1="282.5313" y2="304.5313"/><polygon fill="#555555" points="563.1855,294.5313,567.1855,304.5313,571.1855,294.5313,567.1855,298.5313" style="stroke:#555555;stroke-width:1;"/><line style="stroke:#555555;stroke-width:1;" x1="371.748" x2="371.748" y1="338.5" y2="572.375"/><line style="stroke:#555555;stroke-width:1;" x1="371.748" x2="457.4668" y1="572.375" y2="572.375"/><polygon fill="#555555" points="447.4668,568.375,457.4668,572.375,447.4668,576.375,451.4668,572.375" style="stroke:#555555;stroke-width:1;"/><line style="stroke:#555555;stroke-width:1;" x1="567.1855" x2="567.1855" y1="554.375" y2="572.375"/><line style="stroke:#555555;stroke-width:1;" x1="567.1855" x2="481.4668" y1="572.375" y2="572.375"/><polygon fill="#555555" points="491.4668,568.375,481.4668,572.375,491.4668,576.375,487.4668,572.375" style="stroke:#555555;stroke-width:1;"/><line style="stroke:#555555;stroke-width:1;" x1="469.4668" x2="469.4668" y1="250.5313" y2="270.5313"/><polygon fill="#555555" points="465.4668,260.5313,469.4668,270.5313,473.4668,260.5313,469.4668,264.5313" style="stroke:#555555;stroke-width:1;"/><line style="stroke:#555555;stroke-width:1;" x1="259.667" x2="190.6348" y1="158.2656" y2="158.2656"/><line style="stroke:#555555;stroke-width:1;" x1="190.6348" x2="190.6348" y1="158.2656" y2="180.2656"/><polygon fill="#555555" points="186.6348,170.2656,190.6348,180.2656,194.6348,170.2656,190.6348,174.2656" style="stroke:#555555;stroke-width:1;"/><line style="stroke:#555555;stroke-width:1;" x1="400.4346" x2="469.4668" y1="158.2656" y2="158.2656"/><line style="stroke:#555555;stroke-width:1;" x1="469.4668" x2="469.4668" y1="158.2656" y2="216.5625"/><polygon fill="#555555" points="465.4668,206.5625,469.4668,216.5625,473.4668,206.5625,469.4668,210.5625" style="stroke:#555555;stroke-width:1;"/><line style="stroke:#555555;stroke-width:1;" x1="190.6348" x2="190.6348" y1="214.2344" y2="614.375"/><line style="stroke:#555555;stroke-width:1;" x1="190.6348" x2="318.0508" y1="614.375" y2="614.375"/><polygon fill="#555555" points="308.0508,610.375,318.0508,614.375,308.0508,618.375,312.0508,614.375" style="stroke:#555555;stroke-width:1;"/><line style="stroke:#555555;stroke-width:1;" x1="469.4668" x2="469.4668" y1="584.375" y2="614.375"/><line style="stroke:#555555;stroke-width:1;" x1="469.4668" x2="342.0508" y1="614.375" y2="614.375"/><polygon fill="#555555" points="352.0508,610.375,342.0508,614.375,352.0508,618.375,348.0508,614.375" style="stroke:#555555;stroke-width:1;"/><line style="stroke:#555555;stroke-width:1;" x1="330.0508" x2="330.0508" y1="126.2656" y2="146.2656"/><polygon fill="#555555" points="326.0508,136.2656,330.0508,146.2656,334.0508,136.2656,330.0508,140.2656" style="stroke:#555555;stroke-width:1;"/><line style="stroke:#555555;stroke-width:1;" x1="478.1045" x2="478.1045" y1="794.6094" y2="814.6094"/><polygon fill="#555555" points="474.1045,804.6094,478.1045,814.6094,482.1045,804.6094,478.1045,808.6094" style="stroke:#555555;stroke-width:1;"/><line style="stroke:#555555;stroke-width:1;" x1="234.498" x2="181.9971" y1="738.6406" y2="738.6406"/><line style="stroke:#555555;stroke-width:1;" x1="181.9971" x2="181.9971" y1="738.6406" y2="760.6406"/><polygon fill="#555555" points="177.9971,750.6406,181.9971,760.6406,185.9971,750.6406,181.9971,754.6406" style="stroke:#555555;stroke-width:1;"/><line style="stroke:#555555;stroke-width:1;" x1="425.6035" x2="478.1045" y1="738.6406" y2="738.6406"/><line style="stroke:#555555;stroke-width:1;" x1="478.1045" x2="478.1045" y1="738.6406" y2="760.6406"/><polygon fill="#555555" points="474.1045,750.6406,478.1045,760.6406,482.1045,750.6406,478.1045,754.6406" style="stroke:#555555;stroke-width:1;"/><line style="stroke:#555555;stroke-width:1;" x1="181.9971" x2="181.9971" y1="794.6094" y2="866.5781"/><line style="stroke:#555555;stroke-width:1;" x1="181.9971" x2="318.0508" y1="866.5781" y2="866.5781"/><polygon fill="#555555" points="308.0508,862.5781,318.0508,866.5781,308.0508,870.5781,312.0508,866.5781" style="stroke:#555555;stroke-width:1;"/><line style="stroke:#555555;stroke-width:1;" x1="478.1045" x2="478.1045" y1="848.5781" y2="866.5781"/><line style="stroke:#555555;stroke-width:1;" x1="478.1045" x2="342.0508" y1="866.5781" y2="866.5781"/><polygon fill="#555555" points="352.0508,862.5781,342.0508,866.5781,352.0508,870.5781,348.0508,866.5781" style="stroke:#555555;stroke-width:1;"/><line style="stroke:#555555;stroke-width:1;" x1="330.0508" x2="330.0508" y1="706.6406" y2="726.6406"/><polygon fill="#555555" points="326.0508,716.6406,330.0508,726.6406,334.0508,716.6406,330.0508,720.6406" style="stroke:#555555;stroke-width:1;"/><line style="stroke:#555555;stroke-width:1;" x1="330.0508" x2="330.0508" y1="626.375" y2="672.6719"/><polygon fill="#555555" points="326.0508,662.6719,330.0508,672.6719,334.0508,662.6719,330.0508,666.6719" style="stroke:#555555;stroke-width:1;"/><line style="stroke:#555555;stroke-width:1;" x1="181.9756" x2="181.9756" y1="996.8438" y2="1016.8438"/><polygon fill="#555555" points="177.9756,1006.8438,181.9756,1016.8438,185.9756,1006.8438,181.9756,1010.8438" style="stroke:#555555;stroke-width:1;"/><line style="stroke:#555555;stroke-width:1;" x1="329.3799" x2="329.3799" y1="996.8438" y2="1016.8438"/><polygon fill="#555555" points="325.3799,1006.8438,329.3799,1016.8438,333.3799,1006.8438,329.3799,1010.8438" style="stroke:#555555;stroke-width:1;"/><line style="stroke:#555555;stroke-width:1;" x1="477.4551" x2="477.4551" y1="996.8438" y2="1016.8438"/><polygon fill="#555555" points="473.4551,1006.8438,477.4551,1016.8438,481.4551,1006.8438,477.4551,1010.8438" style="stroke:#555555;stroke-width:1;"/><line style="stroke:#555555;stroke-width:1;" x1="181.9756" x2="181.9756" y1="1050.8125" y2="1070.8125"/><polygon fill="#555555" points="177.9756,1060.8125,181.9756,1070.8125,185.9756,1060.8125,181.9756,1064.8125" style="stroke:#555555;stroke-width:1;"/><line style="stroke:#555555;stroke-width:1;" x1="329.3799" x2="329.3799" y1="1050.8125" y2="1070.8125"/><polygon fill="#555555" points="325.3799,1060.8125,329.3799,1070.8125,333.3799,1060.8125,329.3799,1064.8125" style="stroke:#555555;stroke-width:1;"/><line style="stroke:#555555;stroke-width:1;" x1="477.4551" x2="477.4551" y1="1050.8125" y2="1070.8125"/><polygon fill="#555555" points="473.4551,1060.8125,477.4551,1070.8125,481.4551,1060.8125,477.4551,1064.8125" style="stroke:#555555;stroke-width:1;"/><line style="stroke:#555555;stroke-width:1;" x1="330.0508" x2="330.0508" y1="970.8438" y2="990.8438"/><polygon fill="#555555" points="326.0508,980.8438,330.0508,990.8438,334.0508,980.8438,330.0508,984.8438" style="stroke:#555555;stroke-width:1;"/><line style="stroke:#555555;stroke-width:1;" x1="330.0508" x2="330.0508" y1="1076.8125" y2="1096.8125"/><polygon fill="#555555" points="326.0508,1086.8125,330.0508,1096.8125,334.0508,1086.8125,330.0508,1090.8125" style="stroke:#555555;stroke-width:1;"/><line style="stroke:#555555;stroke-width:1;" x1="330.0508" x2="330.0508" y1="878.5781" y2="936.875"/><polygon fill="#555555" points="326.0508,926.875,330.0508,936.875,334.0508,926.875,330.0508,930.875" style="stroke:#555555;stroke-width:1;"/><line style="stroke:#555555;stroke-width:1;" x1="330.0508" x2="330.0508" y1="1223.0469" y2="1243.0469"/><polygon fill="#555555" points="326.0508,1233.0469,330.0508,1243.0469,334.0508,1233.0469,330.0508,1237.0469" style="stroke:#555555;stroke-width:1;"/><line style="stroke:#555555;stroke-width:1;" x1="330.0508" x2="330.0508" y1="1277.0156" y2="1297.0156"/><polygon fill="#555555" points="326.0508,1287.0156,330.0508,1297.0156,334.0508,1287.0156,330.0508,1291.0156" style="stroke:#555555;stroke-width:1;"/><line style="stroke:#555555;stroke-width:1;" x1="330.0508" x2="330.0508" y1="1130.7813" y2="1189.0781"/><polygon fill="#555555" points="326.0508,1179.0781,330.0508,1189.0781,334.0508,1179.0781,330.0508,1183.0781" style="stroke:#555555;stroke-width:1;"/><line style="stroke:#555555;stroke-width:1;" x1="330.0508" x2="330.0508" y1="1330.9844" y2="1362.9844"/><polygon fill="#555555" points="326.0508,1352.9844,330.0508,1362.9844,334.0508,1352.9844,330.0508,1356.9844" style="stroke:#555555;stroke-width:1;"/><line style="stroke:#555555;stroke-width:1;" x1="330.0508" x2="330.0508" y1="1396.9531" y2="1416.9531"/><polygon fill="#555555" points="326.0508,1406.9531,330.0508,1416.9531,334.0508,1406.9531,330.0508,1410.9531" style="stroke:#555555;stroke-width:1;"/><?plantuml-src XLHTRnit47o_Nx58WK86AhTMFnxaXzPnBAI5umgMqg90NYXgxsuhYZoGIobgaV_UuTrPTO8KFHsW0pdSdPdTPTg9xqmqUzAMzqpMn4tmLJeltrYLW-ZffR6x9eRijxV1XKXVBExAxtF84BSSHzIt_VCS5MCuZflVzqzLgQXZMaOv67kYPN22lnjltEalZZIbrIafx-dt47Ur2yUgIcgYLjNyaItBWUbj0cvjOiDARn_lhwjAQfhuCDrAik60pOKp3INM7o-AK4-JFpXTL4Hp72KzdoIJffAkAtPOdZo40W5l49JWwSLDrZ1zDSO4K-dOYUSNz3Tm27PrIQyvHqagbbO2qgQZbJN-kjylf4Pr9LTTtFoKK1_daJL7JscCq4ig6yzfzS3P9IrDmp3Bjd3qNlpkMJu05k8Kyi5obsXpecuqUSUd8-gKpi2L3P57t0Ie455AYiQZSit56VORHwbFQ1E_bQrHi7czNYy91T6S_eKjnUwebQRbf9HAw2qTob71Hqaowa6K6byVgk6hUkRrcjyhtRtNQ6o_SEURizNp1QjjKHb8jy4hUwM362fSIkHYzC0hMyifrTdHbwGbud-OFXypqTw87v0bu3gQMXoqHKDVqqisMGN1LY5t9S_7zPWlZ7CRp0bfG1-OhKDgMh5ZBtbFhs0znq4uAkmn98C2U4ayfZz8aWs6eJ3eC_I-VFZ8cNuoaYH8klcPRc7kwCggSw83UV7WK2QkYQPhf-PeK5tRPfItXCLROve6BiiOYabqMxRfwdhS9DF0Yyz1PlyFUHZ9FwN1wmFQ9Q8dT8wcZV2A7NIppKNMEtyKRMdTHXYt3C7TzJiXllF5dpLxO_kE39kCdegiKJWDaUTBZiYpHnl6R54iDDdz_HioUIjmyHFtcYPoOn1vT0sNaMDOtxk3OepcXisVMEtTcZ-TAVUZSXCm-trJ3xjFhQEXAmpODzgcho0rxKgD2fiQrq_gcS0dr8P2rYuN6Ls8IfDVLhy-40QupNlZfyK2Wox0FE6g2rtr4vpC-wgwkfnzC_lXyhiDgvdz0m00?></g></svg>