<svg xmlns="http://www.w3.org/2000/svg" xmlns:xlink="http://www.w3.org/1999/xlink" contentStyleType="text/css" data-diagram-type="ACTIVITY" height="1221px" preserveAspectRatio="none" style="width:685px;height:1221px;background:#FFFFFF;" version="1.1" viewBox="0 0 685 1221" width="685px" zoomAndPan="magnify"><?plantuml 1.2026.4beta2?><defs/><g><g class="title" data-source-line="11"><text fill="#212529" font-family="Outfit" font-size="16" font-weight="700" lengthAdjust="spacing" textLength="300.4844" x="191.6523" y="34.8516">Privacy Policy Analyzer Workflow</text></g><ellipse cx="367.2085" cy="64.625" fill="#222222" rx="10" ry="10" style="stroke:#222222;stroke-width:1;"/><rect fill="none" height="254.2031" style="stroke:#000000;stroke-width:1.5;" width="459.0859" x="114.7671" y="84.625"/><path d="M262.0669,84.625 L262.0669,93.9219 L252.0669,103.9219 L114.7671,103.9219" fill="none" style="stroke:#000000;stroke-width:1.5;"/><text fill="#000000" font-family="sans-serif" font-size="14" lengthAdjust="spacing" textLength="137.2998" x="117.7671" y="98.6201">1. Target Discovery</text><rect fill="#F8F9FA" height="33.9688" rx="12.5" ry="12.5" style="stroke:#6C757D;stroke-width:0.5;" width="110.4746" x="311.9712" y="120.9219"/><text fill="#000000" font-family="Outfit" font-size="12" lengthAdjust="spacing" textLength="90.4746" x="321.9712" y="142.0605">Input URL (CLI)</text><polygon fill="#F8F9FA" points="313.1431,174.8906,421.2739,174.8906,433.2739,186.8906,421.2739,198.8906,313.1431,198.8906,301.1431,186.8906,313.1431,174.8906" style="stroke:#6C757D;stroke-width:0.5;"/><text fill="#000000" font-family="Outfit" font-size="11" lengthAdjust="spacing" textLength="108.1309" x="313.1431" y="190.6987">Discovery Enabled?</text><text fill="#000000" font-family="Outfit" font-size="11" lengthAdjust="spacing" textLength="19.0083" x="282.1348" y="184.2964">yes</text><text fill="#000000" font-family="Outfit" font-size="11" lengthAdjust="spacing" textLength="13.7017" x="433.2739" y="184.2964">no</text><rect fill="#F8F9FA" height="33.9688" rx="12.5" ry="12.5" style="stroke:#6C757D;stroke-width:0.5;" width="245.3398" x="134.7671" y="208.8906"/><text fill="#000000" font-family="Outfit" font-size="12" lengthAdjust="spacing" textLength="225.3398" x="144.7671" y="230.0293">Scan robots.txt, sitemaps, homepage</text><rect fill="#F8F9FA" height="33.9688" rx="12.5" ry="12.5" style="stroke:#6C757D;stroke-width:0.5;" width="236.8555" x="139.0093" y="262.8594"/><text fill="#000000" font-family="Outfit" font-size="12" lengthAdjust="spacing" textLength="216.8555" x="149.0093" y="283.998">Resolve to Direct Privacy Policy URL</text><rect fill="#F8F9FA" height="33.9688" rx="12.5" ry="12.5" style="stroke:#6C757D;stroke-width:0.5;" width="153.7461" x="400.1069" y="208.8906"/><text fill="#000000" font-family="Outfit" font-size="12" lengthAdjust="spacing" textLength="133.7461" x="410.1069" y="230.0293">Use Input URL directly</text><polygon fill="#F8F9FA" points="367.2085,302.8281,379.2085,314.8281,367.2085,326.8281,355.2085,314.8281,367.2085,302.8281" style="stroke:#6C757D;stroke-width:0.5;"/><rect fill="none" height="264.2344" style="stroke:#000000;stroke-width:1.5;" width="649.7891" x="16" y="348.8281"/><path d="M175.4063,348.8281 L175.4063,358.125 L165.4063,368.125 L16,368.125" fill="none" style="stroke:#000000;stroke-width:1.5;"/><text fill="#000000" font-family="sans-serif" font-size="14" lengthAdjust="spacing" textLength="149.4063" x="19" y="362.8232">2. Content Extraction</text><polygon fill="#F8F9FA" points="326.6997,385.125,407.7173,385.125,419.7173,397.125,407.7173,409.125,326.6997,409.125,314.6997,397.125,326.6997,385.125" style="stroke:#6C757D;stroke-width:0.5;"/><text fill="#000000" font-family="Outfit" font-size="11" lengthAdjust="spacing" textLength="81.0176" x="326.6997" y="400.9331">Fetch Method?</text><text fill="#000000" font-family="Outfit" font-size="11" lengthAdjust="spacing" textLength="93.2744" x="221.4253" y="394.5308">HTTP Only / Auto</text><text fill="#000000" font-family="Outfit" font-size="11" lengthAdjust="spacing" textLength="79.981" x="419.7173" y="394.5308">Selenium Only</text><rect fill="#F8F9FA" height="33.9688" rx="12.5" ry="12.5" style="stroke:#6C757D;stroke-width:0.5;" width="169.6484" x="116.874" y="419.125"/><text fill="#000000" font-family="Outfit" font-size="12" lengthAdjust="spacing" textLength="149.6484" x="126.874" y="440.2637">Try HTTP with Trafilatura</text><polygon fill="#F8F9FA" points="176.6394,473.0938,226.7571,473.0938,238.7571,485.0938,226.7571,497.0938,176.6394,497.0938,164.6394,485.0938,176.6394,473.0938" style="stroke:#6C757D;stroke-width:0.5;"/><text fill="#000000" font-family="Outfit" font-size="11" lengthAdjust="spacing" textLength="50.1177" x="176.6394" y="488.9019">Success?</text><text fill="#000000" font-family="Outfit" font-size="11" lengthAdjust="spacing" textLength="19.0083" x="145.6311" y="482.4995">yes</text><text fill="#000000" font-family="Outfit" font-size="11" lengthAdjust="spacing" textLength="13.7017" x="238.7571" y="482.4995">no</text><rect fill="#F8F9FA" height="33.9688" rx="12.5" ry="12.5" style="stroke:#6C757D;stroke-width:0.5;" width="160.5723" x="28" y="507.0938"/><text fill="#000000" font-family="Outfit" font-size="12" lengthAdjust="spacing" textLength="140.5723" x="38" y="528.2324">Extract clean main text</text><rect fill="#F8F9FA" height="33.9688" rx="12.5" ry="12.5" style="stroke:#6C757D;stroke-width:0.5;" width="173.0762" x="208.5723" y="507.0938"/><text fill="#000000" font-family="Outfit" font-size="12" lengthAdjust="spacing" textLength="153.0762" x="218.5723" y="528.2324">Fallback to BeautifulSoup</text><polygon fill="#F8F9FA" points="201.6982,547.0625,213.6982,559.0625,201.6982,571.0625,189.6982,559.0625,201.6982,547.0625" style="stroke:#6C757D;stroke-width:0.5;"/><rect fill="#F8F9FA" height="33.9688" rx="12.5" ry="12.5" style="stroke:#6C757D;stroke-width:0.5;" width="242.1406" x="411.6484" y="419.125"/><text fill="#000000" font-family="Outfit" font-size="12" lengthAdjust="spacing" textLength="222.1406" x="421.6484" y="440.2637">Launch Headless Chrome (Selenium)</text><rect fill="#F8F9FA" height="33.9688" rx="12.5" ry="12.5" style="stroke:#6C757D;stroke-width:0.5;" width="132.8574" x="466.29" y="473.0938"/><text fill="#000000" font-family="Outfit" font-size="12" lengthAdjust="spacing" textLength="112.8574" x="476.29" y="494.2324">Extract visible text</text><polygon fill="#F8F9FA" points="367.2085,577.0625,379.2085,589.0625,367.2085,601.0625,355.2085,589.0625,367.2085,577.0625" style="stroke:#6C757D;stroke-width:0.5;"/><rect fill="none" height="82.2656" style="stroke:#000000;stroke-width:1.5;" width="274.9141" x="229.7515" y="623.0625"/><path d="M359.1001,623.0625 L359.1001,632.3594 L349.1001,642.3594 L229.7515,642.3594" fill="none" style="stroke:#000000;stroke-width:1.5;"/><text fill="#000000" font-family="sans-serif" font-size="14" lengthAdjust="spacing" textLength="119.3486" x="232.7515" y="637.0576">3. Text Chunking</text><rect fill="#F8F9FA" height="33.9688" rx="12.5" ry="12.5" style="stroke:#6C757D;stroke-width:0.5;" width="254.9141" x="239.7515" y="659.3594"/><text fill="#000000" font-family="Outfit" font-size="12" lengthAdjust="spacing" textLength="234.9141" x="249.7515" y="680.498">Split text into paragraph-aware chunks</text><rect fill="none" height="244.1719" style="stroke:#000000;stroke-width:1.5;" width="405.752" x="164.3325" y="715.3281"/><path d="M332.9126,715.3281 L332.9126,724.625 L322.9126,734.625 L164.3325,734.625" fill="none" style="stroke:#000000;stroke-width:1.5;"/><text fill="#000000" font-family="sans-serif" font-size="14" lengthAdjust="spacing" textLength="158.5801" x="167.3325" y="729.3232">4. Parallel LLM Scoring</text><line style="stroke:#495057;stroke-width:1.5;" x1="279.0688" x2="471.9448" y1="751.625" y2="751.625"/><rect fill="#F8F9FA" height="33.9688" rx="12.5" ry="12.5" style="stroke:#6C757D;stroke-width:0.5;" width="115.1797" x="221.479" y="771.625"/><text fill="#000000" font-family="Outfit" font-size="12" lengthAdjust="spacing" textLength="95.1797" x="231.479" y="792.7637">Model: gemini-*</text><rect fill="#F8F9FA" height="47.9375" rx="12.5" ry="12.5" style="stroke:#6C757D;stroke-width:0.5;" width="181.4727" x="188.3325" y="825.5938"/><text fill="#000000" font-family="Outfit" font-size="12" lengthAdjust="spacing" textLength="161.4727" x="198.3325" y="846.7324">Send to Google Gemini API</text><text fill="#000000" font-family="Outfit" font-size="12" lengthAdjust="spacing" textLength="116.1621" x="198.3325" y="860.7012">(google-genai SDK)</text><rect fill="#F8F9FA" height="33.9688" rx="12.5" ry="12.5" style="stroke:#6C757D;stroke-width:0.5;" width="148.2793" x="397.8052" y="771.625"/><text fill="#000000" font-family="Outfit" font-size="12" lengthAdjust="spacing" textLength="128.2793" x="407.8052" y="792.7637">Model: other (gpt-4o)</text><rect fill="#F8F9FA" height="47.9375" rx="12.5" ry="12.5" style="stroke:#6C757D;stroke-width:0.5;" width="136.4961" x="403.6968" y="825.5938"/><text fill="#000000" font-family="Outfit" font-size="12" lengthAdjust="spacing" textLength="116.4961" x="413.6968" y="846.7324">Send to OpenAI API</text><text fill="#000000" font-family="Outfit" font-size="12" lengthAdjust="spacing" textLength="78.5391" x="413.6968" y="860.7012">(openai SDK)</text><line style="stroke:#495057;stroke-width:1.5;" x1="279.0688" x2="471.9448" y1="893.5313" y2="893.5313"/><rect fill="#F8F9FA" height="33.9688" rx="12.5" ry="12.5" style="stroke:#6C757D;stroke-width:0.5;" width="207.9102" x="263.2534" y="913.5313"/><text fill="#000000" font-family="Outfit" font-size="12" lengthAdjust="spacing" textLength="187.9102" x="273.2534" y="934.6699">Return Structured JSON chunks</text><rect fill="none" height="190.2031" style="stroke:#000000;stroke-width:1.5;" width="300.2383" x="217.0894" y="969.5"/><path d="M382.3882,969.5 L382.3882,978.7969 L372.3882,988.7969 L217.0894,988.7969" fill="none" style="stroke:#000000;stroke-width:1.5;"/><text fill="#000000" font-family="sans-serif" font-size="14" lengthAdjust="spacing" textLength="155.2988" x="220.0894" y="983.4951">5. Report Aggregation</text><rect fill="#F8F9FA" height="33.9688" rx="12.5" ry="12.5" style="stroke:#6C757D;stroke-width:0.5;" width="280.2383" x="227.0894" y="1005.7969"/><text fill="#000000" font-family="Outfit" font-size="12" lengthAdjust="spacing" textLength="260.2383" x="237.0894" y="1026.9355">Aggregate category scores (weighted sum)</text><rect fill="#F8F9FA" height="33.9688" rx="12.5" ry="12.5" style="stroke:#6C757D;stroke-width:0.5;" width="252.1953" x="241.1108" y="1059.7656"/><text fill="#000000" font-family="Outfit" font-size="12" lengthAdjust="spacing" textLength="232.1953" x="251.1108" y="1080.9043">Extract top strengths, risks &amp; red flags</text><rect fill="#F8F9FA" height="33.9688" rx="12.5" ry="12.5" style="stroke:#6C757D;stroke-width:0.5;" width="274.4609" x="229.978" y="1113.7344"/><text fill="#000000" font-family="Outfit" font-size="12" lengthAdjust="spacing" textLength="254.4609" x="239.978" y="1134.873">Format Output (Summary / Detailed / Full)</text><ellipse cx="367.2085" cy="1190.7031" fill="none" rx="11" ry="11" style="stroke:#222222;stroke-width:1;"/><ellipse cx="367.2085" cy="1190.7031" fill="#222222" rx="6" ry="6" style="stroke:#222222;stroke-width:1;"/><line style="stroke:#495057;stroke-width:1;" x1="257.437" x2="257.437" y1="242.8594" y2="262.8594"/><polygon fill="#495057" points="253.437,252.8594,257.437,262.8594,261.437,252.8594,257.437,256.8594" style="stroke:#495057;stroke-width:1;"/><line style="stroke:#495057;stroke-width:1;" x1="301.1431" x2="257.437" y1="186.8906" y2="186.8906"/><line style="stroke:#495057;stroke-width:1;" x1="257.437" x2="257.437" y1="186.8906" y2="208.8906"/><polygon fill="#495057" points="253.437,198.8906,257.437,208.8906,261.437,198.8906,257.437,202.8906" style="stroke:#495057;stroke-width:1;"/><line style="stroke:#495057;stroke-width:1;" x1="433.2739" x2="476.98" y1="186.8906" y2="186.8906"/><line style="stroke:#495057;stroke-width:1;" x1="476.98" x2="476.98" y1="186.8906" y2="208.8906"/><polygon fill="#495057" points="472.98,198.8906,476.98,208.8906,480.98,198.8906,476.98,202.8906" style="stroke:#495057;stroke-width:1;"/><line style="stroke:#495057;stroke-width:1;" x1="257.437" x2="257.437" y1="296.8281" y2="314.8281"/><line style="stroke:#495057;stroke-width:1;" x1="257.437" x2="355.2085" y1="314.8281" y2="314.8281"/><polygon fill="#495057" points="345.2085,310.8281,355.2085,314.8281,345.2085,318.8281,349.2085,314.8281" style="stroke:#495057;stroke-width:1;"/><line style="stroke:#495057;stroke-width:1;" x1="476.98" x2="476.98" y1="242.8594" y2="314.8281"/><line style="stroke:#495057;stroke-width:1;" x1="476.98" x2="379.2085" y1="314.8281" y2="314.8281"/><polygon fill="#495057" points="389.2085,310.8281,379.2085,314.8281,389.2085,318.8281,385.2085,314.8281" style="stroke:#495057;stroke-width:1;"/><line style="stroke:#495057;stroke-width:1;" x1="367.2085" x2="367.2085" y1="154.8906" y2="174.8906"/><polygon fill="#495057" points="363.2085,164.8906,367.2085,174.8906,371.2085,164.8906,367.2085,168.8906" style="stroke:#495057;stroke-width:1;"/><line style="stroke:#495057;stroke-width:1;" x1="367.2085" x2="367.2085" y1="74.625" y2="120.9219"/><polygon fill="#495057" points="363.2085,110.9219,367.2085,120.9219,371.2085,110.9219,367.2085,114.9219" style="stroke:#495057;stroke-width:1;"/><line style="stroke:#495057;stroke-width:1;" x1="164.6394" x2="108.2861" y1="485.0938" y2="485.0938"/><line style="stroke:#495057;stroke-width:1;" x1="108.2861" x2="108.2861" y1="485.0938" y2="507.0938"/><polygon fill="#495057" points="104.2861,497.0938,108.2861,507.0938,112.2861,497.0938,108.2861,501.0938" style="stroke:#495057;stroke-width:1;"/><line style="stroke:#495057;stroke-width:1;" x1="238.7571" x2="295.1104" y1="485.0938" y2="485.0938"/><line style="stroke:#495057;stroke-width:1;" x1="295.1104" x2="295.1104" y1="485.0938" y2="507.0938"/><polygon fill="#495057" points="291.1104,497.0938,295.1104,507.0938,299.1104,497.0938,295.1104,501.0938" style="stroke:#495057;stroke-width:1;"/><line style="stroke:#495057;stroke-width:1;" x1="108.2861" x2="108.2861" y1="541.0625" y2="559.0625"/><line style="stroke:#495057;stroke-width:1;" x1="108.2861" x2="189.6982" y1="559.0625" y2="559.0625"/><polygon fill="#495057" points="179.6982,555.0625,189.6982,559.0625,179.6982,563.0625,183.6982,559.0625" style="stroke:#495057;stroke-width:1;"/><line style="stroke:#495057;stroke-width:1;" x1="295.1104" x2="295.1104" y1="541.0625" y2="559.0625"/><line style="stroke:#495057;stroke-width:1;" x1="295.1104" x2="213.6982" y1="559.0625" y2="559.0625"/><polygon fill="#495057" points="223.6982,555.0625,213.6982,559.0625,223.6982,563.0625,219.6982,559.0625" style="stroke:#495057;stroke-width:1;"/><line style="stroke:#495057;stroke-width:1;" x1="201.6982" x2="201.6982" y1="453.0938" y2="473.0938"/><polygon fill="#495057" points="197.6982,463.0938,201.6982,473.0938,205.6982,463.0938,201.6982,467.0938" style="stroke:#495057;stroke-width:1;"/><line style="stroke:#495057;stroke-width:1;" x1="532.7188" x2="532.7188" y1="453.0938" y2="473.0938"/><polygon fill="#495057" points="528.7188,463.0938,532.7188,473.0938,536.7188,463.0938,532.7188,467.0938" style="stroke:#495057;stroke-width:1;"/><line style="stroke:#495057;stroke-width:1;" x1="314.6997" x2="201.6982" y1="397.125" y2="397.125"/><line style="stroke:#495057;stroke-width:1;" x1="201.6982" x2="201.6982" y1="397.125" y2="419.125"/><polygon fill="#495057" points="197.6982,409.125,201.6982,419.125,205.6982,409.125,201.6982,413.125" style="stroke:#495057;stroke-width:1;"/><line style="stroke:#495057;stroke-width:1;" x1="419.7173" x2="532.7188" y1="397.125" y2="397.125"/><line style="stroke:#495057;stroke-width:1;" x1="532.7188" x2="532.7188" y1="397.125" y2="419.125"/><polygon fill="#495057" points="528.7188,409.125,532.7188,419.125,536.7188,409.125,532.7188,413.125" style="stroke:#495057;stroke-width:1;"/><line style="stroke:#495057;stroke-width:1;" x1="201.6982" x2="201.6982" y1="571.0625" y2="589.0625"/><line style="stroke:#495057;stroke-width:1;" x1="201.6982" x2="355.2085" y1="589.0625" y2="589.0625"/><polygon fill="#495057" points="345.2085,585.0625,355.2085,589.0625,345.2085,593.0625,349.2085,589.0625" style="stroke:#495057;stroke-width:1;"/><line style="stroke:#495057;stroke-width:1;" x1="532.7188" x2="532.7188" y1="507.0625" y2="589.0625"/><line style="stroke:#495057;stroke-width:1;" x1="532.7188" x2="379.2085" y1="589.0625" y2="589.0625"/><polygon fill="#495057" points="389.2085,585.0625,379.2085,589.0625,389.2085,593.0625,385.2085,589.0625" style="stroke:#495057;stroke-width:1;"/><line style="stroke:#495057;stroke-width:1;" x1="367.2085" x2="367.2085" y1="326.8281" y2="385.125"/><polygon fill="#495057" points="363.2085,375.125,367.2085,385.125,371.2085,375.125,367.2085,379.125" style="stroke:#495057;stroke-width:1;"/><line style="stroke:#495057;stroke-width:1;" x1="367.2085" x2="367.2085" y1="601.0625" y2="659.3594"/><polygon fill="#495057" points="363.2085,649.3594,367.2085,659.3594,371.2085,649.3594,367.2085,653.3594" style="stroke:#495057;stroke-width:1;"/><line style="stroke:#495057;stroke-width:1;" x1="279.0688" x2="279.0688" y1="805.5938" y2="825.5938"/><polygon fill="#495057" points="275.0688,815.5938,279.0688,825.5938,283.0688,815.5938,279.0688,819.5938" style="stroke:#495057;stroke-width:1;"/><line style="stroke:#495057;stroke-width:1;" x1="471.9448" x2="471.9448" y1="805.5938" y2="825.5938"/><polygon fill="#495057" points="467.9448,815.5938,471.9448,825.5938,475.9448,815.5938,471.9448,819.5938" style="stroke:#495057;stroke-width:1;"/><line style="stroke:#495057;stroke-width:1;" x1="279.0688" x2="279.0688" y1="753.125" y2="771.625"/><polygon fill="#495057" points="275.0688,761.625,279.0688,771.625,283.0688,761.625,279.0688,765.625" style="stroke:#495057;stroke-width:1;"/><line style="stroke:#495057;stroke-width:1;" x1="471.9448" x2="471.9448" y1="753.125" y2="771.625"/><polygon fill="#495057" points="467.9448,761.625,471.9448,771.625,475.9448,761.625,471.9448,765.625" style="stroke:#495057;stroke-width:1;"/><line style="stroke:#495057;stroke-width:1;" x1="279.0688" x2="279.0688" y1="873.5313" y2="893.5313"/><polygon fill="#495057" points="275.0688,883.5313,279.0688,893.5313,283.0688,883.5313,279.0688,887.5313" style="stroke:#495057;stroke-width:1;"/><line style="stroke:#495057;stroke-width:1;" x1="471.9448" x2="471.9448" y1="873.5313" y2="893.5313"/><polygon fill="#495057" points="467.9448,883.5313,471.9448,893.5313,475.9448,883.5313,471.9448,887.5313" style="stroke:#495057;stroke-width:1;"/><line style="stroke:#495057;stroke-width:1;" x1="367.2085" x2="367.2085" y1="895.0313" y2="913.5313"/><polygon fill="#495057" points="363.2085,903.5313,367.2085,913.5313,371.2085,903.5313,367.2085,907.5313" style="stroke:#495057;stroke-width:1;"/><line style="stroke:#495057;stroke-width:1;" x1="367.2085" x2="367.2085" y1="693.3281" y2="751.625"/><polygon fill="#495057" points="363.2085,741.625,367.2085,751.625,371.2085,741.625,367.2085,745.625" style="stroke:#495057;stroke-width:1;"/><line style="stroke:#495057;stroke-width:1;" x1="367.2085" x2="367.2085" y1="1039.7656" y2="1059.7656"/><polygon fill="#495057" points="363.2085,1049.7656,367.2085,1059.7656,371.2085,1049.7656,367.2085,1053.7656" style="stroke:#495057;stroke-width:1;"/><line style="stroke:#495057;stroke-width:1;" x1="367.2085" x2="367.2085" y1="1093.7344" y2="1113.7344"/><polygon fill="#495057" points="363.2085,1103.7344,367.2085,1113.7344,371.2085,1103.7344,367.2085,1107.7344" style="stroke:#495057;stroke-width:1;"/><line style="stroke:#495057;stroke-width:1;" x1="367.2085" x2="367.2085" y1="947.5" y2="1005.7969"/><polygon fill="#495057" points="363.2085,995.7969,367.2085,1005.7969,371.2085,995.7969,367.2085,999.7969" style="stroke:#495057;stroke-width:1;"/><line style="stroke:#495057;stroke-width:1;" x1="367.2085" x2="367.2085" y1="1147.7031" y2="1179.7031"/><polygon fill="#495057" points="363.2085,1169.7031,367.2085,1179.7031,371.2085,1169.7031,367.2085,1173.7031" style="stroke:#495057;stroke-width:1;"/><?plantuml-src ZLJ1Rjf04BtxAqQfL44LQA2GDCcX9L0dj2H1CL4llIncMAzOxrgxOmYf-kyT6qEQX4Zb06RcpPltPcVj5yfameaKBaIyaCxcPjQtsZfu5vQVmEyGlPZKKj7wDV9pU1hszY6jcw6hKCVza-x9O0ygj8PkH8fmczDSqRy8v-ogAk-STe-w9o-JRzTE56dyZtIa7X5Qn_jILUTsgzrjdmO15N4OExKKyHh6LYl-wHcXru_euATrYxcsgo3m91m50PDnXR863bfDc0WdaM2WV6oNwDO7y3i0E1kQB2Uulnj1hJyQriyvfkPGsy7Wcn5JZRClTQ043TJMwEiCuj8e5WQSdLhoJNgWG_2AC1MPFuJ4ffW9YUSRv1rwgvS8PBc_mvXUck3-1HIrHwWPMpMuvtzF-cPbfLwNG3DJy-3FCu_j9lHvPcW8lZsG4t4HthWi78L8SGBNI8bzCdCrcOpXrkWrV8HUJjl64_PTfbQA4fWuCLTQKEx4naz15-LnZDw_7WkNL-qXriWJIeKoGFX0c-Bd7XaT2gsdlD75T2vGvAJckOvidbNuqkgsBaADHkLfARfIEnAvOMjNA6QQ9K4_SJp-9sozEeMjhANoYezqfsdVC3_nmd2QkNB3UochROaohQWi16LORx6lqeaiQOYLS0Xn0VVdByWwJHWpK6lKC1fTGnHRj-Fq1UL6uBMTeJu3YQaogl6XaXsnlc8sbzPALdrPPg4t7luoDLd66XADK10DVfHMIqOGakV-ZDVoIJceoOmQ7Lj_mNwReUaDArgRFICi85kPlCky20OYSddCJpY3xz7jpHlEkqsumymwWfwK3gLusicpROIdnb_IyixndNFeeRP29HDYQb-Ttkxio6RWoQ6HbF0zSyelFBo7GiPS2-bBS6XTAgXuvHHtXrSrJOKhLdo091HVPduCSwthfLpFdC5NzfYdGT1gje_QnytEb97jlm00?></g></svg>