<svg xmlns="http://www.w3.org/2000/svg" xmlns:xlink="http://www.w3.org/1999/xlink" contentStyleType="text/css" data-diagram-type="ACTIVITY" height="1514px" preserveAspectRatio="none" style="width:821px;height:1514px;background:#FFFFFF;" version="1.1" viewBox="0 0 821 1514" width="821px" zoomAndPan="magnify"><?plantuml 1.2026.4beta2?><defs/><g><g class="title" data-source-line="15"><text fill="#000000" font-family="sans-serif" font-size="14" font-weight="700" lengthAdjust="spacing" textLength="336.7998" x="241.5574" y="32.9951">Privacy Policy Analyzer - System Workflow</text></g><ellipse cx="339.4463" cy="62.2969" fill="#222222" rx="10" ry="10" style="stroke:#222222;stroke-width:1;"/><rect fill="#FEFEFE" height="33.9688" rx="12.5" ry="12.5" style="stroke:#333333;stroke-width:0.5;" width="169.4434" x="254.7246" y="92.2969"/><text fill="#000000" font-family="'Outfit', 'Inter', sans-serif" font-size="12" lengthAdjust="spacing" textLength="149.4434" x="264.7246" y="113.4355">Receive User Target URL</text><polygon fill="#FEFEFE" points="275.7549,146.2656,403.1377,146.2656,415.1377,158.2656,403.1377,170.2656,275.7549,170.2656,263.7549,158.2656,275.7549,146.2656" style="stroke:#333333;stroke-width:0.5;"/><text fill="#000000" font-family="'Outfit', 'Inter', sans-serif" font-size="12" lengthAdjust="spacing" textLength="127.3828" x="275.7549" y="162.4199">no-discover Flag set?</text><text fill="#000000" font-family="'Outfit', 'Inter', sans-serif" font-size="11" lengthAdjust="spacing" textLength="19.2178" x="244.5371" y="155.6714">Yes</text><text fill="#000000" font-family="'Outfit', 'Inter', sans-serif" font-size="11" lengthAdjust="spacing" textLength="14.9585" x="415.1377" y="155.6714">No</text><rect fill="#FEFEFE" height="33.9688" rx="12.5" ry="12.5" style="stroke:#333333;stroke-width:0.5;" width="141.8867" x="113.6489" y="180.2656"/><text fill="#000000" font-family="'Outfit', 'Inter', sans-serif" font-size="12" lengthAdjust="spacing" textLength="121.8867" x="123.6489" y="201.4043">Use target URL as-is</text><rect fill="none" height="444.0469" style="stroke:#000000;stroke-width:1.5;" width="526.3789" x="275.5356" y="180.2656"/><path d="M451.8062,180.2656 L451.8062,189.5625 L441.8062,199.5625 L275.5356,199.5625" fill="none" style="stroke:#000000;stroke-width:1.5;"/><text fill="#000000" font-family="sans-serif" font-size="14" lengthAdjust="spacing" textLength="166.2705" x="278.5356" y="194.2607">Auto-Discovery Pipeline</text><rect fill="#FEFEFE" height="47.9375" rx="12.5" ry="12.5" style="stroke:#333333;stroke-width:0.5;" width="245.7734" x="371.4136" y="216.5625"/><text fill="#000000" font-family="'Outfit', 'Inter', sans-serif" font-size="12" lengthAdjust="spacing" textLength="154.9336" x="381.4136" y="237.7012">1. Heuristic Sitemap Scan</text><text fill="#000000" font-family="'Outfit', 'Inter', sans-serif" font-size="12" lengthAdjust="spacing" textLength="225.7734" x="381.4136" y="251.6699">(Query robots.txt &amp; default sitemaps)</text><polygon fill="#FEFEFE" points="440.728,284.5,547.8726,284.5,559.8726,296.5,547.8726,308.5,440.728,308.5,428.728,296.5,440.728,284.5" style="stroke:#333333;stroke-width:0.5;"/><text fill="#000000" font-family="'Outfit', 'Inter', sans-serif" font-size="12" lengthAdjust="spacing" textLength="107.1445" x="440.728" y="300.6543">Policy URL found?</text><text fill="#000000" font-family="'Outfit', 'Inter', sans-serif" font-size="11" lengthAdjust="spacing" textLength="19.2178" x="409.5103" y="293.9058">Yes</text><text fill="#000000" font-family="'Outfit', 'Inter', sans-serif" font-size="11" lengthAdjust="spacing" textLength="14.9585" x="559.8726" y="293.9058">No</text><rect fill="#FEFEFE" height="33.9688" rx="12.5" ry="12.5" style="stroke:#333333;stroke-width:0.5;" width="140.3398" x="295.5356" y="318.5"/><text fill="#000000" font-family="'Outfit', 'Inter', sans-serif" font-size="12" lengthAdjust="spacing" textLength="120.3398" x="305.5356" y="339.6387">Return sitemap URL</text><rect fill="#FEFEFE" height="47.9375" rx="12.5" ry="12.5" style="stroke:#333333;stroke-width:0.5;" width="262.6016" x="491.5942" y="318.5"/><text fill="#000000" font-family="'Outfit', 'Inter', sans-serif" font-size="12" lengthAdjust="spacing" textLength="152.3379" x="501.5942" y="339.6387">2. Page Anchor Link Scan</text><text fill="#000000" font-family="'Outfit', 'Inter', sans-serif" font-size="12" lengthAdjust="spacing" textLength="242.6016" x="501.5942" y="353.6074">(Fetch HTML homepage and parse links)</text><rect fill="#FEFEFE" height="33.9688" rx="12.5" ry="12.5" style="stroke:#333333;stroke-width:0.5;" width="209.4746" x="518.1577" y="386.4375"/><text fill="#000000" font-family="'Outfit', 'Inter', sans-serif" font-size="12" lengthAdjust="spacing" textLength="189.4746" x="528.1577" y="407.5762">Filter links by privacy keywords</text><rect fill="#FEFEFE" height="33.9688" rx="12.5" ry="12.5" style="stroke:#333333;stroke-width:0.5;" width="323.4277" x="461.1812" y="440.4063"/><text fill="#000000" font-family="'Outfit', 'Inter', sans-serif" font-size="12" lengthAdjust="spacing" textLength="303.4277" x="471.1812" y="461.5449">Score links (based on priority index &amp; anchor text)</text><rect fill="#FEFEFE" height="33.9688" rx="12.5" ry="12.5" style="stroke:#333333;stroke-width:0.5;" width="334.0391" x="455.8755" y="494.375"/><text fill="#000000" font-family="'Outfit', 'Inter', sans-serif" font-size="12" lengthAdjust="spacing" textLength="314.0391" x="465.8755" y="515.5137">Verify candidate (lightweight HTTP existence check)</text><rect fill="#FEFEFE" height="33.9688" rx="12.5" ry="12.5" style="stroke:#333333;stroke-width:0.5;" width="210.5352" x="517.6274" y="548.3438"/><text fill="#000000" font-family="'Outfit', 'Inter', sans-serif" font-size="12" lengthAdjust="spacing" textLength="190.5352" x="527.6274" y="569.4824">Pick highest scored verified link</text><polygon fill="#FEFEFE" points="494.3003,588.3125,506.3003,600.3125,494.3003,612.3125,482.3003,600.3125,494.3003,588.3125" style="stroke:#333333;stroke-width:0.5;"/><polygon fill="#FEFEFE" points="339.4463,630.3125,351.4463,642.3125,339.4463,654.3125,327.4463,642.3125,339.4463,630.3125" style="stroke:#333333;stroke-width:0.5;"/><rect fill="none" height="254.2031" style="stroke:#000000;stroke-width:1.5;" width="641.7969" x="16" y="664.3125"/><path d="M185.291,664.3125 L185.291,673.6094 L175.291,683.6094 L16,683.6094" fill="none" style="stroke:#000000;stroke-width:1.5;"/><text fill="#000000" font-family="sans-serif" font-size="14" lengthAdjust="spacing" textLength="159.291" x="19" y="678.3076">Text Extraction Engine</text><rect fill="#FEFEFE" height="33.9688" rx="12.5" ry="12.5" style="stroke:#333333;stroke-width:0.5;" width="193.0742" x="242.9092" y="700.6094"/><text fill="#000000" font-family="'Outfit', 'Inter', sans-serif" font-size="12" lengthAdjust="spacing" textLength="173.0742" x="252.9092" y="721.748">Fetch page content via HTTP</text><polygon fill="#FEFEFE" points="248.2979,754.5781,430.5947,754.5781,442.5947,766.5781,430.5947,778.5781,248.2979,778.5781,236.2979,766.5781,248.2979,754.5781" style="stroke:#333333;stroke-width:0.5;"/><text fill="#000000" font-family="'Outfit', 'Inter', sans-serif" font-size="12" lengthAdjust="spacing" textLength="182.2969" x="248.2979" y="770.7324">HTTP successful &amp; text found?</text><text fill="#000000" font-family="'Outfit', 'Inter', sans-serif" font-size="11" lengthAdjust="spacing" textLength="19.2178" x="217.0801" y="763.9839">Yes</text><text fill="#000000" font-family="'Outfit', 'Inter', sans-serif" font-size="11" lengthAdjust="spacing" textLength="14.9585" x="442.5947" y="763.9839">No</text><rect fill="#FEFEFE" height="33.9688" rx="12.5" ry="12.5" style="stroke:#333333;stroke-width:0.5;" width="307.9941" x="28" y="788.5781"/><text fill="#000000" font-family="'Outfit', 'Inter', sans-serif" font-size="12" lengthAdjust="spacing" textLength="287.9941" x="38" y="809.7168">Extract main text via Trafilatura / BeautifulSoup</text><rect fill="#FEFEFE" height="33.9688" rx="12.5" ry="12.5" style="stroke:#333333;stroke-width:0.5;" width="244.2207" x="374.7852" y="788.5781"/><text fill="#000000" font-family="'Outfit', 'Inter', sans-serif" font-size="12" lengthAdjust="spacing" textLength="224.2207" x="384.7852" y="809.7168">Fallback to Headless Selenium Driver</text><rect fill="#FEFEFE" height="33.9688" rx="12.5" ry="12.5" style="stroke:#333333;stroke-width:0.5;" width="281.8027" x="355.9941" y="842.5469"/><text fill="#000000" font-family="'Outfit', 'Inter', sans-serif" font-size="12" lengthAdjust="spacing" textLength="261.8027" x="365.9941" y="863.6855">Render dynamic page &amp; extract visible text</text><polygon fill="#FEFEFE" points="339.4463,882.5156,351.4463,894.5156,339.4463,906.5156,327.4463,894.5156,339.4463,882.5156" style="stroke:#333333;stroke-width:0.5;"/><rect fill="none" height="256.1719" style="stroke:#000000;stroke-width:1.5;" width="680.9307" x="107.6689" y="928.5156"/><path d="M246.0342,928.5156 L246.0342,937.8125 L236.0342,947.8125 L107.6689,947.8125" fill="none" style="stroke:#000000;stroke-width:1.5;"/><text fill="#000000" font-family="sans-serif" font-size="14" lengthAdjust="spacing" textLength="128.3652" x="110.6689" y="942.5107">Analysis &amp; AI Core</text><rect fill="#FEFEFE" height="33.9688" rx="12.5" ry="12.5" style="stroke:#333333;stroke-width:0.5;" width="254.9141" x="211.9893" y="964.8125"/><text fill="#000000" font-family="'Outfit', 'Inter', sans-serif" font-size="12" lengthAdjust="spacing" textLength="234.9141" x="221.9893" y="985.9512">Split text into paragraph-aware chunks</text><path d="M581.2236,1034.0664 L581.2236,1089.4648 L778.5996,1089.4648 L778.5996,1044.0664 L768.5996,1034.0664 L581.2236,1034.0664" fill="#FEFFDD" style="stroke:#181818;stroke-width:0.5;"/><path d="M768.5996,1034.0664 L768.5996,1044.0664 L778.5996,1044.0664 L768.5996,1034.0664" fill="#FEFFDD" style="stroke:#181818;stroke-width:0.5;"/><text fill="#000000" font-family="sans-serif" font-size="13" lengthAdjust="spacing" textLength="116.0605" x="587.2236" y="1051.1333">Parallel execution</text><text fill="#000000" font-family="sans-serif" font-size="13" lengthAdjust="spacing" textLength="170.0347" x="587.2236" y="1066.2661">using ThreadPoolExecutor</text><text fill="#000000" font-family="sans-serif" font-size="13" lengthAdjust="spacing" textLength="176.376" x="587.2236" y="1081.3989">and Tenacity robust retries</text><rect fill="#555555" height="6" rx="2.5" ry="2.5" style="stroke:#555555;stroke-width:1;" width="443.5547" x="117.6689" y="1018.7813"/><rect fill="#FEFEFE" height="33.9688" rx="12.5" ry="12.5" style="stroke:#333333;stroke-width:0.5;" width="119.4043" x="131.6689" y="1044.7813"/><text fill="#000000" font-family="'Outfit', 'Inter', sans-serif" font-size="12" lengthAdjust="spacing" textLength="99.4043" x="141.6689" y="1065.9199">Process Chunk 1</text><rect fill="#FEFEFE" height="33.9688" rx="12.5" ry="12.5" style="stroke:#333333;stroke-width:0.5;" width="119.4043" x="279.0732" y="1044.7813"/><text fill="#000000" font-family="'Outfit', 'Inter', sans-serif" font-size="12" lengthAdjust="spacing" textLength="99.4043" x="289.0732" y="1065.9199">Process Chunk 2</text><rect fill="#FEFEFE" height="33.9688" rx="12.5" ry="12.5" style="stroke:#333333;stroke-width:0.5;" width="120.7461" x="426.4775" y="1044.7813"/><text fill="#000000" font-family="'Outfit', 'Inter', sans-serif" font-size="12" lengthAdjust="spacing" textLength="100.7461" x="436.4775" y="1065.9199">Process Chunk N</text><rect fill="#555555" height="6" rx="2.5" ry="2.5" style="stroke:#555555;stroke-width:1;" width="443.5547" x="117.6689" y="1098.75"/><rect fill="#FEFEFE" height="47.9375" rx="12.5" ry="12.5" style="stroke:#333333;stroke-width:0.5;" width="262.3086" x="208.292" y="1124.75"/><text fill="#000000" font-family="'Outfit', 'Inter', sans-serif" font-size="12" lengthAdjust="spacing" textLength="175.8633" x="218.292" y="1145.8887">Perform structured LLM audit</text><text fill="#000000" font-family="'Outfit', 'Inter', sans-serif" font-size="12" lengthAdjust="spacing" textLength="242.3086" x="218.292" y="1159.8574">(Auto-select Gemini or OpenAI backend)</text><rect fill="none" height="258.1406" style="stroke:#000000;stroke-width:1.5;" width="313.7617" x="182.5654" y="1194.6875"/><path d="M271.5615,1194.6875 L271.5615,1203.9844 L261.5615,1213.9844 L182.5654,1213.9844" fill="none" style="stroke:#000000;stroke-width:1.5;"/><text fill="#000000" font-family="sans-serif" font-size="14" lengthAdjust="spacing" textLength="78.9961" x="185.5654" y="1208.6826">Aggregator</text><rect fill="#FEFEFE" height="33.9688" rx="12.5" ry="12.5" style="stroke:#333333;stroke-width:0.5;" width="200.6973" x="239.0977" y="1230.9844"/><text fill="#000000" font-family="'Outfit', 'Inter', sans-serif" font-size="12" lengthAdjust="spacing" textLength="180.6973" x="249.0977" y="1252.123">Collect chunk analysis objects</text><rect fill="#FEFEFE" height="47.9375" rx="12.5" ry="12.5" style="stroke:#333333;stroke-width:0.5;" width="203.873" x="237.5098" y="1284.9531"/><text fill="#000000" font-family="'Outfit', 'Inter', sans-serif" font-size="12" lengthAdjust="spacing" textLength="162.2402" x="247.5098" y="1306.0918">Aggregate category scores</text><text fill="#000000" font-family="'Outfit', 'Inter', sans-serif" font-size="12" lengthAdjust="spacing" textLength="183.873" x="247.5098" y="1320.0605">(Calculate weighted averages)</text><rect fill="#FEFEFE" height="33.9688" rx="12.5" ry="12.5" style="stroke:#333333;stroke-width:0.5;" width="252.1953" x="213.3486" y="1352.8906"/><text fill="#000000" font-family="'Outfit', 'Inter', sans-serif" font-size="12" lengthAdjust="spacing" textLength="232.1953" x="223.3486" y="1374.0293">Extract top strengths, risks &amp; red flags</text><rect fill="#FEFEFE" height="33.9688" rx="12.5" ry="12.5" style="stroke:#333333;stroke-width:0.5;" width="293.7617" x="192.5654" y="1406.8594"/><text fill="#000000" font-family="'Outfit', 'Inter', sans-serif" font-size="12" lengthAdjust="spacing" textLength="273.7617" x="202.5654" y="1427.998">Print output report (JSON or human-readable)</text><ellipse cx="339.4463" cy="1483.8281" fill="none" rx="11" ry="11" style="stroke:#222222;stroke-width:1;"/><ellipse cx="339.4463" cy="1483.8281" fill="#222222" rx="6" ry="6" style="stroke:#222222;stroke-width:1;"/><line style="stroke:#555555;stroke-width:1;" x1="339.4463" x2="339.4463" y1="72.2969" y2="92.2969"/><polygon fill="#555555" points="335.4463,82.2969,339.4463,92.2969,343.4463,82.2969,339.4463,86.2969" style="stroke:#555555;stroke-width:1;"/><line style="stroke:#555555;stroke-width:1;" x1="622.895" x2="622.895" y1="366.4375" y2="386.4375"/><polygon fill="#555555" points="618.895,376.4375,622.895,386.4375,626.895,376.4375,622.895,380.4375" style="stroke:#555555;stroke-width:1;"/><line style="stroke:#555555;stroke-width:1;" x1="622.895" x2="622.895" y1="420.4063" y2="440.4063"/><polygon fill="#555555" points="618.895,430.4063,622.895,440.4063,626.895,430.4063,622.895,434.4063" style="stroke:#555555;stroke-width:1;"/><line style="stroke:#555555;stroke-width:1;" x1="622.895" x2="622.895" y1="474.375" y2="494.375"/><polygon fill="#555555" points="618.895,484.375,622.895,494.375,626.895,484.375,622.895,488.375" style="stroke:#555555;stroke-width:1;"/><line style="stroke:#555555;stroke-width:1;" x1="622.895" x2="622.895" y1="528.3438" y2="548.3438"/><polygon fill="#555555" points="618.895,538.3438,622.895,548.3438,626.895,538.3438,622.895,542.3438" style="stroke:#555555;stroke-width:1;"/><line style="stroke:#555555;stroke-width:1;" x1="428.728" x2="365.7056" y1="296.5" y2="296.5"/><line style="stroke:#555555;stroke-width:1;" x1="365.7056" x2="365.7056" y1="296.5" y2="318.5"/><polygon fill="#555555" points="361.7056,308.5,365.7056,318.5,369.7056,308.5,365.7056,312.5" style="stroke:#555555;stroke-width:1;"/><line style="stroke:#555555;stroke-width:1;" x1="559.8726" x2="622.895" y1="296.5" y2="296.5"/><line style="stroke:#555555;stroke-width:1;" x1="622.895" x2="622.895" y1="296.5" y2="318.5"/><polygon fill="#555555" points="618.895,308.5,622.895,318.5,626.895,308.5,622.895,312.5" style="stroke:#555555;stroke-width:1;"/><line style="stroke:#555555;stroke-width:1;" x1="365.7056" x2="365.7056" y1="352.4688" y2="600.3125"/><line style="stroke:#555555;stroke-width:1;" x1="365.7056" x2="482.3003" y1="600.3125" y2="600.3125"/><polygon fill="#555555" points="472.3003,596.3125,482.3003,600.3125,472.3003,604.3125,476.3003,600.3125" style="stroke:#555555;stroke-width:1;"/><line style="stroke:#555555;stroke-width:1;" x1="622.895" x2="622.895" y1="582.3125" y2="600.3125"/><line style="stroke:#555555;stroke-width:1;" x1="622.895" x2="506.3003" y1="600.3125" y2="600.3125"/><polygon fill="#555555" points="516.3003,596.3125,506.3003,600.3125,516.3003,604.3125,512.3003,600.3125" style="stroke:#555555;stroke-width:1;"/><line style="stroke:#555555;stroke-width:1;" x1="494.3003" x2="494.3003" y1="264.5" y2="284.5"/><polygon fill="#555555" points="490.3003,274.5,494.3003,284.5,498.3003,274.5,494.3003,278.5" style="stroke:#555555;stroke-width:1;"/><line style="stroke:#555555;stroke-width:1;" x1="263.7549" x2="184.5923" y1="158.2656" y2="158.2656"/><line style="stroke:#555555;stroke-width:1;" x1="184.5923" x2="184.5923" y1="158.2656" y2="180.2656"/><polygon fill="#555555" points="180.5923,170.2656,184.5923,180.2656,188.5923,170.2656,184.5923,174.2656" style="stroke:#555555;stroke-width:1;"/><line style="stroke:#555555;stroke-width:1;" x1="415.1377" x2="494.3003" y1="158.2656" y2="158.2656"/><line style="stroke:#555555;stroke-width:1;" x1="494.3003" x2="494.3003" y1="158.2656" y2="216.5625"/><polygon fill="#555555" points="490.3003,206.5625,494.3003,216.5625,498.3003,206.5625,494.3003,210.5625" style="stroke:#555555;stroke-width:1;"/><line style="stroke:#555555;stroke-width:1;" x1="184.5923" x2="184.5923" y1="214.2344" y2="642.3125"/><line style="stroke:#555555;stroke-width:1;" x1="184.5923" x2="327.4463" y1="642.3125" y2="642.3125"/><polygon fill="#555555" points="317.4463,638.3125,327.4463,642.3125,317.4463,646.3125,321.4463,642.3125" style="stroke:#555555;stroke-width:1;"/><line style="stroke:#555555;stroke-width:1;" x1="494.3003" x2="494.3003" y1="612.3125" y2="642.3125"/><line style="stroke:#555555;stroke-width:1;" x1="494.3003" x2="351.4463" y1="642.3125" y2="642.3125"/><polygon fill="#555555" points="361.4463,638.3125,351.4463,642.3125,361.4463,646.3125,357.4463,642.3125" style="stroke:#555555;stroke-width:1;"/><line style="stroke:#555555;stroke-width:1;" x1="339.4463" x2="339.4463" y1="126.2656" y2="146.2656"/><polygon fill="#555555" points="335.4463,136.2656,339.4463,146.2656,343.4463,136.2656,339.4463,140.2656" style="stroke:#555555;stroke-width:1;"/><line style="stroke:#555555;stroke-width:1;" x1="496.8955" x2="496.8955" y1="822.5469" y2="842.5469"/><polygon fill="#555555" points="492.8955,832.5469,496.8955,842.5469,500.8955,832.5469,496.8955,836.5469" style="stroke:#555555;stroke-width:1;"/><line style="stroke:#555555;stroke-width:1;" x1="236.2979" x2="181.9971" y1="766.5781" y2="766.5781"/><line style="stroke:#555555;stroke-width:1;" x1="181.9971" x2="181.9971" y1="766.5781" y2="788.5781"/><polygon fill="#555555" points="177.9971,778.5781,181.9971,788.5781,185.9971,778.5781,181.9971,782.5781" style="stroke:#555555;stroke-width:1;"/><line style="stroke:#555555;stroke-width:1;" x1="442.5947" x2="496.8955" y1="766.5781" y2="766.5781"/><line style="stroke:#555555;stroke-width:1;" x1="496.8955" x2="496.8955" y1="766.5781" y2="788.5781"/><polygon fill="#555555" points="492.8955,778.5781,496.8955,788.5781,500.8955,778.5781,496.8955,782.5781" style="stroke:#555555;stroke-width:1;"/><line style="stroke:#555555;stroke-width:1;" x1="181.9971" x2="181.9971" y1="822.5469" y2="894.5156"/><line style="stroke:#555555;stroke-width:1;" x1="181.9971" x2="327.4463" y1="894.5156" y2="894.5156"/><polygon fill="#555555" points="317.4463,890.5156,327.4463,894.5156,317.4463,898.5156,321.4463,894.5156" style="stroke:#555555;stroke-width:1;"/><line style="stroke:#555555;stroke-width:1;" x1="496.8955" x2="496.8955" y1="876.5156" y2="894.5156"/><line style="stroke:#555555;stroke-width:1;" x1="496.8955" x2="351.4463" y1="894.5156" y2="894.5156"/><polygon fill="#555555" points="361.4463,890.5156,351.4463,894.5156,361.4463,898.5156,357.4463,894.5156" style="stroke:#555555;stroke-width:1;"/><line style="stroke:#555555;stroke-width:1;" x1="339.4463" x2="339.4463" y1="734.5781" y2="754.5781"/><polygon fill="#555555" points="335.4463,744.5781,339.4463,754.5781,343.4463,744.5781,339.4463,748.5781" style="stroke:#555555;stroke-width:1;"/><line style="stroke:#555555;stroke-width:1;" x1="339.4463" x2="339.4463" y1="654.3125" y2="700.6094"/><polygon fill="#555555" points="335.4463,690.6094,339.4463,700.6094,343.4463,690.6094,339.4463,694.6094" style="stroke:#555555;stroke-width:1;"/><line style="stroke:#555555;stroke-width:1;" x1="191.3711" x2="191.3711" y1="1024.7813" y2="1044.7813"/><polygon fill="#555555" points="187.3711,1034.7813,191.3711,1044.7813,195.3711,1034.7813,191.3711,1038.7813" style="stroke:#555555;stroke-width:1;"/><line style="stroke:#555555;stroke-width:1;" x1="338.7754" x2="338.7754" y1="1024.7813" y2="1044.7813"/><polygon fill="#555555" points="334.7754,1034.7813,338.7754,1044.7813,342.7754,1034.7813,338.7754,1038.7813" style="stroke:#555555;stroke-width:1;"/><line style="stroke:#555555;stroke-width:1;" x1="486.8506" x2="486.8506" y1="1024.7813" y2="1044.7813"/><polygon fill="#555555" points="482.8506,1034.7813,486.8506,1044.7813,490.8506,1034.7813,486.8506,1038.7813" style="stroke:#555555;stroke-width:1;"/><line style="stroke:#555555;stroke-width:1;" x1="191.3711" x2="191.3711" y1="1078.75" y2="1098.75"/><polygon fill="#555555" points="187.3711,1088.75,191.3711,1098.75,195.3711,1088.75,191.3711,1092.75" style="stroke:#555555;stroke-width:1;"/><line style="stroke:#555555;stroke-width:1;" x1="338.7754" x2="338.7754" y1="1078.75" y2="1098.75"/><polygon fill="#555555" points="334.7754,1088.75,338.7754,1098.75,342.7754,1088.75,338.7754,1092.75" style="stroke:#555555;stroke-width:1;"/><line style="stroke:#555555;stroke-width:1;" x1="486.8506" x2="486.8506" y1="1078.75" y2="1098.75"/><polygon fill="#555555" points="482.8506,1088.75,486.8506,1098.75,490.8506,1088.75,486.8506,1092.75" style="stroke:#555555;stroke-width:1;"/><line style="stroke:#555555;stroke-width:1;" x1="339.4463" x2="339.4463" y1="998.7813" y2="1018.7813"/><polygon fill="#555555" points="335.4463,1008.7813,339.4463,1018.7813,343.4463,1008.7813,339.4463,1012.7813" style="stroke:#555555;stroke-width:1;"/><line style="stroke:#555555;stroke-width:1;" x1="339.4463" x2="339.4463" y1="1104.75" y2="1124.75"/><polygon fill="#555555" points="335.4463,1114.75,339.4463,1124.75,343.4463,1114.75,339.4463,1118.75" style="stroke:#555555;stroke-width:1;"/><line style="stroke:#555555;stroke-width:1;" x1="339.4463" x2="339.4463" y1="906.5156" y2="964.8125"/><polygon fill="#555555" points="335.4463,954.8125,339.4463,964.8125,343.4463,954.8125,339.4463,958.8125" style="stroke:#555555;stroke-width:1;"/><line style="stroke:#555555;stroke-width:1;" x1="339.4463" x2="339.4463" y1="1264.9531" y2="1284.9531"/><polygon fill="#555555" points="335.4463,1274.9531,339.4463,1284.9531,343.4463,1274.9531,339.4463,1278.9531" style="stroke:#555555;stroke-width:1;"/><line style="stroke:#555555;stroke-width:1;" x1="339.4463" x2="339.4463" y1="1332.8906" y2="1352.8906"/><polygon fill="#555555" points="335.4463,1342.8906,339.4463,1352.8906,343.4463,1342.8906,339.4463,1346.8906" style="stroke:#555555;stroke-width:1;"/><line style="stroke:#555555;stroke-width:1;" x1="339.4463" x2="339.4463" y1="1386.8594" y2="1406.8594"/><polygon fill="#555555" points="335.4463,1396.8594,339.4463,1406.8594,343.4463,1396.8594,339.4463,1400.8594" style="stroke:#555555;stroke-width:1;"/><line style="stroke:#555555;stroke-width:1;" x1="339.4463" x2="339.4463" y1="1172.6875" y2="1230.9844"/><polygon fill="#555555" points="335.4463,1220.9844,339.4463,1230.9844,343.4463,1220.9844,339.4463,1224.9844" style="stroke:#555555;stroke-width:1;"/><line style="stroke:#555555;stroke-width:1;" x1="339.4463" x2="339.4463" y1="1440.8281" y2="1472.8281"/><polygon fill="#555555" points="335.4463,1462.8281,339.4463,1472.8281,343.4463,1462.8281,339.4463,1466.8281" style="stroke:#555555;stroke-width:1;"/><?plantuml-src bLNRRXit47tVhnWuG203aGkxw8lyK3YErQHmRDLIKXJeouWxks95aGjUP2j5_hs7t9MZ64w3I8AquDpEd3b3XRMs7NlUK5p9HaYnNpfRXSVZ2nNrLiVTQrRhrhjawqjddASNqwlyVixJ-LhyuFLpUJtZDNKstZ0g7jscsEXuz8gEtjae7W-1RHW7yRhvHk1SVn8wFJkqUk_kXvg_bDTJuuyNt4VrrKuFJ9VErZfgP-TnPuIq3RgM0_iRpHkuV9-plUF_KZOu_N031t7x5gge8m3FlDwosj7C6OsV2yjczqayZMc-2r4szAVpwyQu-weAaNsigicTAD5ReG-eGWlshKJwS7TzNbMweP5rure7vROmJWst52J-UfmrPMdqbuJZYcY2K8gFaSHXhCDv9GR7enkNNO0x5bxfw295Dtupv0HItOdHLexeN_WXsUa9lPNaTOXQqLm3D7SqLsp_jgC_KWxnRkbYE8aFaLvIBGqd4odqdk7ulAJ9s0SICgGcp-efxbBkJcBoTX_UTvuDX-YBuza9pRWLSAfMcEQrjkizhAb4jQAtY_VNj78RwR8RspftZIJeRhs7XJnJRJ3Q_fIME-g6aQrbTm-rX4V7kN9-YARHaeFK1FxWxZos1TgivG44S8ydoaFyKkHZLimEImyvrnpHYT7jAjvB_WRInOpa0HIBLRWQLgBMNs9dMgrf1KS9e3M3g6cRysayP3W3GKZTuEbprJzL1pDU00nTFKJFgXnSsVPnn9EUhKAIWeB5HjfgBg1ovZov0Z0afII49XbqcTlxrXGdGoNQiBQzPqwuyDnemnWlqq_qMZX5ZMHpbxfSv-i1JwPip19hJT51VrmRbAQv6B4wOUCm9F5zuv0CgFTKxonleD7IoKlmsOFOwg2NMCMCezGfx7p-Yf-obq47X5symwNZzzpCEwDZtuAsG9BtlVNShSPyppwFAa4EEIq-3NQvHpJpBbD5bzbCf-U3aRW58y-vd7tVvMO0lo-3ZtLGaiyIAW4pW3D635eNbN9dvJW5RLjQh3nOd3bdhehL-MBCQx4GoofB68kSe34lqMi9GxbSfCfSpCIZz8P2z4bXYb3VzVLxueGR6ajNxf600O7ptsIZhIQimMqd5fJcII8PHFs4-BRrqZBG38JZQYuP2h50Dyp5BV_1QI5wie_9_w5HMeSRg6n508XBDYgPREjN2nWPGe4Y-er_b6PqNMv4R1jNuHL83Eiy_TnKWskrhuJR6ylWKknIPgLpFjBez_djJUvibJPinvbKXhpwpWBI_WS0?></g></svg>